<svg viewBox="0 0 256 256" xmlns="http://www.w3.org/2000/svg" role="img" aria-label="go-tpm2">
  <defs>
    <linearGradient id="gocyan" x1="0" y1="0" x2="1" y2="1">
      <stop offset="0" stop-color="#22CCE2"/>
      <stop offset="1" stop-color="#0079A8"/>
    </linearGradient>
  </defs>
  <rect width="256" height="256" rx="56" fill="url(#gocyan)"/>
  <g fill="none" stroke="#FFFFFF" stroke-linecap="round" stroke-linejoin="round">
    <path d="M128 56L180 76V120C180 156 158 184 128 196C98 184 76 156 76 120V76Z" stroke-width="11"/>
    <rect x="104" y="96" width="48" height="48" rx="9" stroke-width="11"/>
    <rect x="119" y="111" width="18" height="18" rx="3" stroke-width="9"/>
    <g stroke-width="9">
      <path d="M114 96V84M128 96V84M142 96V84"/>
      <path d="M114 144v12M128 144v12M142 144v12"/>
      <path d="M104 108H92M104 132H92"/>
      <path d="M152 108h12M152 132h12"/>
    </g>
  </g>
</svg>
